<svg width="29" height="13" viewBox="0 0 29 13" fill="none" xmlns="http://www.w3.org/2000/svg">
<path d="M28.2469 13H0.760938V0.399999H28.2469V13ZM1.33694 12.424H27.6709V0.975999H1.33694V12.424ZM25.1689 6.592C25.1689 8.122 24.1789 9.202 22.6849 9.202C21.1909 9.202 20.1829 8.122 20.1829 6.592C20.1829 5.044 21.1909 3.946 22.6849 3.946C24.1789 3.946 25.1689 5.044 25.1689 6.592ZM8.42894 6.592C8.42894 8.086 7.38494 9.148 5.78294 9.148H4.18094V4.036H5.78294C7.38494 4.036 8.42894 5.098 8.42894 6.592ZM10.1029 4.558V6.268H12.8569V6.808H10.1029V8.608H13.0369V9.148H9.47294V4.036H13.0369V4.558H10.1029ZM19.1389 4.036V9.148H18.5269V5.062L16.6909 7.294H16.4389L14.6029 5.062V9.148H13.9909V4.036H14.5669L16.5469 6.484L18.5449 4.036H19.1389ZM20.8489 6.592C20.8489 7.798 21.5689 8.68 22.6849 8.68C23.8009 8.68 24.5389 7.798 24.5389 6.592C24.5389 5.368 23.8009 4.486 22.6849 4.486C21.5689 4.486 20.8489 5.368 20.8489 6.592ZM7.76294 6.592C7.76294 5.422 7.04294 4.558 5.83694 4.558H4.79294V8.608H5.83694C7.04294 8.608 7.76294 7.762 7.76294 6.592Z" fill="white"/>
</svg>
