<svg width="1861" height="682" viewBox="0 0 1861 682" fill="none" xmlns="http://www.w3.org/2000/svg">
<path d="M1468 312C1468 316.958 1464.73 321.908 1458.22 326.788C1451.73 331.659 1442.12 336.381 1429.69 340.892C1404.84 349.913 1368.86 358.046 1324.35 364.879C1235.34 378.545 1112.36 387 976.5 387C840.643 387 717.661 378.545 628.653 364.879C584.145 358.046 548.156 349.913 523.307 340.892C510.879 336.381 501.27 331.659 494.778 326.788C488.273 321.908 485 316.958 485 312C485 307.042 488.273 302.092 494.778 297.212C501.27 292.341 510.879 287.619 523.307 283.108C548.156 274.087 584.145 265.954 628.653 259.121C717.661 245.455 840.643 237 976.5 237C1112.36 237 1235.34 245.455 1324.35 259.121C1368.86 265.954 1404.84 274.087 1429.69 283.108C1442.12 287.619 1451.73 292.341 1458.22 297.212C1464.73 302.092 1468 307.042 1468 312Z" stroke="url(#paint0_linear_212_883)"/>
<path d="M1402.49 185.315C1403.94 189.987 1402.31 195.61 1397.61 202.111C1392.93 208.601 1385.26 215.86 1374.88 223.745C1354.11 239.512 1322.6 257.698 1282.68 277.151C1202.84 316.052 1089.48 359.974 961.501 399.69C833.526 439.407 715.198 467.39 627.345 480.53C583.414 487.1 547.128 489.955 521.074 488.718C508.044 488.1 497.607 486.458 490.063 483.764C482.504 481.066 477.968 477.357 476.514 472.685C475.06 468.013 476.691 462.39 481.387 455.889C486.073 449.4 493.74 442.141 504.123 434.255C524.885 418.488 556.399 400.302 596.321 380.85C676.156 341.948 789.523 298.026 917.499 258.311C1045.47 218.595 1163.8 190.61 1251.66 177.47C1295.59 170.9 1331.87 168.045 1357.93 169.282C1370.96 169.901 1381.39 171.543 1388.94 174.236C1396.5 176.934 1401.03 180.643 1402.49 185.315Z" stroke="url(#paint1_linear_212_883)"/>
<path d="M1399.75 53.7001C1403.17 57.1726 1403.89 62.5534 1401.9 69.7743C1399.92 76.981 1395.26 85.9054 1388.14 96.3301C1373.9 117.174 1349.88 143.908 1317.94 174.711C1254.07 236.313 1158.63 314.123 1046.75 393.536C934.869 472.949 827.759 538.915 745.031 581.371C703.662 602.6 668.414 617.94 641.728 626.146C628.38 630.251 617.209 632.56 608.502 632.943C599.779 633.326 593.668 631.772 590.248 628.299C586.826 624.827 586.107 619.447 588.096 612.226C590.081 605.019 594.737 596.094 601.858 585.67C616.098 564.826 640.123 538.092 672.06 507.288C735.93 445.688 831.374 367.877 943.252 288.464C1055.13 209.051 1162.24 143.085 1244.97 100.629C1286.34 79.3995 1321.59 64.0601 1348.27 55.8533C1361.62 51.7489 1372.79 49.4397 1381.5 49.0569C1390.22 48.6735 1396.33 50.2277 1399.75 53.7001Z" stroke="url(#paint2_linear_212_883)"/>
<path d="M829.52 592V593.14H824.68V606H823.36V593.14H818.52V592H829.52ZM838.612 595.78C841.553 595.78 843.513 598 843.513 601C843.513 604 841.553 606.22 838.612 606.22C835.652 606.22 833.692 604 833.692 601C833.692 598 835.652 595.78 838.612 595.78ZM838.612 596.88C836.372 596.88 834.932 598.62 834.932 601C834.932 603.38 836.372 605.12 838.612 605.12C840.832 605.12 842.272 603.38 842.272 601C842.272 598.62 840.832 596.88 838.612 596.88ZM858.03 606L854.69 600.86H851.93V606H850.65V592H851.93V599.72H854.63L857.59 596H859.13L855.69 600.26L859.57 606H858.03ZM872.807 596H874.187L869.447 607.92C868.807 609.48 867.447 610.24 866.007 610.24C865.167 610.24 864.467 610.06 863.767 609.76V608.48C864.707 609 865.427 609.08 866.007 609.08C866.947 609.08 867.947 608.62 868.407 607.44L868.887 606.22L864.487 596H865.927L869.487 604.64L872.807 596ZM884.352 595.78C887.292 595.78 889.252 598 889.252 601C889.252 604 887.292 606.22 884.352 606.22C881.392 606.22 879.432 604 879.432 601C879.432 598 881.392 595.78 884.352 595.78ZM884.352 596.88C882.112 596.88 880.672 598.62 880.672 601C880.672 603.38 882.112 605.12 884.352 605.12C886.572 605.12 888.012 603.38 888.012 601C888.012 598.62 886.572 596.88 884.352 596.88ZM895.363 608.68L895.843 604.1H897.743L896.343 608.68H895.363ZM914.297 604.36C915.317 604.8 916.297 605.04 917.137 605.04C919.077 605.04 920.617 603.74 920.617 601.94V592H921.957V601.84C921.957 604.36 919.857 606.18 917.117 606.18C916.197 606.18 915.197 606.04 914.297 605.72V604.36ZM933.716 595.78C936.056 595.78 937.596 597.16 937.596 599.4V606H936.356V604.08H936.316C935.856 605.1 934.576 606.12 932.576 606.12C930.636 606.12 929.336 605.04 929.336 603.34C929.336 601.42 930.736 600.04 934.616 600.04H936.356V599.4C936.356 597.84 935.296 596.88 933.716 596.88C932.176 596.88 931.156 597.68 931.036 599.1H929.756C929.856 597.02 931.356 595.78 933.716 595.78ZM932.836 605.08C934.816 605.08 936.296 603.78 936.356 602.12V601.04H934.616C931.556 601.04 930.596 602 930.596 603.32C930.596 604.4 931.476 605.08 932.836 605.08ZM945.395 610V596H946.675L946.655 598.2H946.675C947.235 596.7 948.635 595.78 950.255 595.78C953.155 595.78 955.035 598 955.035 601.02C955.035 604.02 953.155 606.22 950.255 606.22C948.615 606.22 947.195 605.36 946.675 603.94H946.655L946.675 610H945.395ZM950.215 605.12C952.415 605.12 953.795 603.38 953.795 601.02C953.795 598.64 952.415 596.88 950.215 596.88C948.095 596.88 946.575 598.5 946.575 600.88V601.12C946.595 603.48 948.115 605.12 950.215 605.12ZM965.778 595.78C968.118 595.78 969.658 597.16 969.658 599.4V606H968.418V604.08H968.378C967.918 605.1 966.638 606.12 964.638 606.12C962.698 606.12 961.398 605.04 961.398 603.34C961.398 601.42 962.798 600.04 966.678 600.04H968.418V599.4C968.418 597.84 967.358 596.88 965.778 596.88C964.238 596.88 963.218 597.68 963.098 599.1H961.818C961.918 597.02 963.418 595.78 965.778 595.78ZM964.898 605.08C966.878 605.08 968.358 603.78 968.418 602.12V601.04H966.678C963.618 601.04 962.658 602 962.658 603.32C962.658 604.4 963.538 605.08 964.898 605.08ZM982.297 595.78C984.717 595.78 986.057 597.44 986.057 600.06V606H984.777V600.06C984.777 598.1 983.777 596.92 982.177 596.92C980.137 596.92 978.737 598.4 978.737 600.72V606H977.457V596H978.737V598.22C979.377 596.6 980.677 595.78 982.297 595.78Z" fill="#89F2D6"/>
<defs>
<linearGradient id="paint0_linear_212_883" x1="976.5" y1="237" x2="976.5" y2="387" gradientUnits="userSpaceOnUse">
<stop stop-color="#89F2D6"/>
<stop offset="0.973958" stop-color="#EE89F2"/>
<stop offset="1" stop-color="#010101" stop-opacity="0"/>
</linearGradient>
<linearGradient id="paint1_linear_212_883" x1="939.5" y1="169" x2="939.5" y2="489" gradientUnits="userSpaceOnUse">
<stop stop-color="#89F2D6"/>
<stop offset="1" stop-color="#CA7AF7"/>
</linearGradient>
<linearGradient id="paint2_linear_212_883" x1="995" y1="49" x2="995" y2="633" gradientUnits="userSpaceOnUse">
<stop stop-color="#89F2D6"/>
<stop offset="1" stop-color="#EE89F2"/>
</linearGradient>
</defs>
</svg>
