<svg width="80" height="80" viewBox="0 0 80 80" fill="none" xmlns="http://www.w3.org/2000/svg">
<path d="M69.8233 27.6832C69.7897 25.1586 69.3171 22.6591 68.4267 20.2965C67.6545 18.3037 66.4751 16.4939 64.9639 14.9826C63.4527 13.4714 61.6428 12.292 59.65 11.5199C57.3178 10.6444 54.8539 10.171 52.3633 10.1199C49.1567 9.97652 48.14 9.93652 40 9.93652C31.86 9.93652 30.8167 9.93652 27.6333 10.1199C25.1439 10.1714 22.6812 10.6448 20.35 11.5199C18.3569 12.2915 16.5467 13.4707 15.0354 14.982C13.5241 16.4933 12.345 18.3034 11.5733 20.2965C10.6961 22.627 10.2237 25.0902 10.1767 27.5799C10.0333 30.7899 9.98999 31.8065 9.98999 39.9465C9.98999 48.0865 9.98999 49.1265 10.1767 52.3132C10.2267 54.8065 10.6967 57.2665 11.5733 59.6032C12.3462 61.5957 13.5263 63.4051 15.0381 64.9158C16.5499 66.4264 18.3602 67.6051 20.3533 68.3765C22.6781 69.2872 25.1412 69.7945 27.6367 69.8765C30.8467 70.0199 31.8633 70.0632 40.0033 70.0632C48.1433 70.0632 49.1867 70.0632 52.37 69.8765C54.8605 69.8275 57.3245 69.3552 59.6567 68.4799C61.649 67.7068 63.4583 66.5271 64.9695 65.016C66.4806 63.5049 67.6603 61.6955 68.4333 59.7032C69.31 57.3699 69.78 54.9099 69.83 52.4132C69.9733 49.2065 70.0167 48.1899 70.0167 40.0465C70.01 31.9065 70.01 30.8732 69.8233 27.6832ZM39.98 55.3399C31.4667 55.3399 24.57 48.4432 24.57 39.9299C24.57 31.4165 31.4667 24.5199 39.98 24.5199C44.067 24.5199 47.9866 26.1434 50.8765 29.0333C53.7664 31.9233 55.39 35.8429 55.39 39.9299C55.39 44.0168 53.7664 47.9364 50.8765 50.8264C47.9866 53.7163 44.067 55.3399 39.98 55.3399ZM56.0033 27.5432C55.5313 27.5436 55.0639 27.451 54.6277 27.2706C54.1915 27.0901 53.7952 26.8255 53.4615 26.4917C53.1277 26.1579 52.863 25.7616 52.6826 25.3255C52.5022 24.8893 52.4095 24.4219 52.41 23.9499C52.41 23.4782 52.5029 23.0111 52.6834 22.5754C52.8639 22.1396 53.1285 21.7437 53.462 21.4102C53.7955 21.0766 54.1914 20.8121 54.6272 20.6316C55.0629 20.4511 55.53 20.3582 56.0017 20.3582C56.4733 20.3582 56.9404 20.4511 57.3761 20.6316C57.8119 20.8121 58.2078 21.0766 58.5414 21.4102C58.8749 21.7437 59.1394 22.1396 59.3199 22.5754C59.5004 23.0111 59.5933 23.4782 59.5933 23.9499C59.5933 25.9365 57.9867 27.5432 56.0033 27.5432Z" fill="black"/>
<path d="M39.98 49.9399C45.5083 49.9399 49.99 45.4583 49.99 39.9299C49.99 34.4016 45.5083 29.9199 39.98 29.9199C34.4516 29.9199 29.97 34.4016 29.97 39.9299C29.97 45.4583 34.4516 49.9399 39.98 49.9399Z" fill="black"/>
</svg>
