<svg width="16" height="16" viewBox="0 0 16 16" fill="none" xmlns="http://www.w3.org/2000/svg">
<g clip-path="url(#clip0_48_805)">
<mask id="mask0_48_805" style="mask-type:luminance" maskUnits="userSpaceOnUse" x="0" y="0" width="16" height="16">
<path d="M16 0H0V16H16V0Z" fill="white"/>
</mask>
<g mask="url(#mask0_48_805)">
<path d="M10.1 5.59963C9.58899 5.59787 9.08269 5.69689 8.61003 5.89101C8.13738 6.08513 7.70763 6.37055 7.3454 6.73093C6.98316 7.09131 6.69554 7.51958 6.49899 7.99123C6.30244 8.46288 6.20082 8.96866 6.19995 9.47963V13.3996C6.19995 13.5587 6.26317 13.7113 6.37569 13.8239C6.48821 13.9364 6.64082 13.9996 6.79995 13.9996H8.19995C8.35908 13.9996 8.51169 13.9364 8.62421 13.8239C8.73674 13.7113 8.79995 13.5587 8.79995 13.3996V9.47963C8.79982 9.2979 8.83799 9.11818 8.91197 8.95218C8.98596 8.78619 9.09409 8.63766 9.22933 8.51626C9.36456 8.39486 9.52387 8.30332 9.69685 8.24762C9.86984 8.19191 10.0526 8.17329 10.2333 8.19296C10.5573 8.23377 10.855 8.39207 11.0701 8.63784C11.2851 8.8836 11.4025 9.19974 11.4 9.5263V13.3996C11.4 13.5587 11.4632 13.7113 11.5757 13.8239C11.6882 13.9364 11.8408 13.9996 12 13.9996H13.4C13.5591 13.9996 13.7117 13.9364 13.8242 13.8239C13.9367 13.7113 14 13.5587 14 13.3996V9.47963C13.9991 8.96866 13.8975 8.46288 13.7009 7.99123C13.5044 7.51958 13.2167 7.09131 12.8545 6.73093C12.4923 6.37055 12.0625 6.08513 11.5899 5.89101C11.1172 5.69689 10.6109 5.59787 10.1 5.59963Z" fill="black"/>
<path d="M4.4 6.2002H2.6C2.26863 6.2002 2 6.46883 2 6.8002V13.4002C2 13.7315 2.26863 14.0002 2.6 14.0002H4.4C4.73137 14.0002 5 13.7315 5 13.4002V6.8002C5 6.46883 4.73137 6.2002 4.4 6.2002Z" fill="black"/>
<path d="M3.5 5C4.32843 5 5 4.32843 5 3.5C5 2.67157 4.32843 2 3.5 2C2.67157 2 2 2.67157 2 3.5C2 4.32843 2.67157 5 3.5 5Z" fill="black"/>
</g>
</g>
<defs>
<clipPath id="clip0_48_805">
<rect width="16" height="16" fill="white"/>
</clipPath>
</defs>
</svg>
