<svg width="16" height="16" viewBox="0 0 16 16" fill="none" xmlns="http://www.w3.org/2000/svg">
<g clip-path="url(#clip0_1_399)">
<path d="M10.1 5.6C9.58899 5.59824 9.08269 5.69726 8.61003 5.89138C8.13738 6.0855 7.70763 6.37092 7.3454 6.7313C6.98316 7.09168 6.69554 7.51995 6.49899 7.9916C6.30244 8.46325 6.20082 8.96903 6.19995 9.48V13.4C6.19995 13.5591 6.26317 13.7117 6.37569 13.8243C6.48821 13.9368 6.64082 14 6.79995 14H8.19995C8.35908 14 8.51169 13.9368 8.62421 13.8243C8.73674 13.7117 8.79995 13.5591 8.79995 13.4V9.48C8.79982 9.29827 8.83799 9.11855 8.91197 8.95255C8.98596 8.78656 9.09409 8.63803 9.22933 8.51663C9.36456 8.39523 9.52387 8.30369 9.69685 8.24799C9.86984 8.19228 10.0526 8.17366 10.2333 8.19333C10.5573 8.23414 10.855 8.39244 11.0701 8.63821C11.2851 8.88397 11.4025 9.20011 11.4 9.52667V13.4C11.4 13.5591 11.4632 13.7117 11.5757 13.8243C11.6882 13.9368 11.8408 14 12 14H13.4C13.5591 14 13.7117 13.9368 13.8242 13.8243C13.9367 13.7117 14 13.5591 14 13.4V9.48C13.9991 8.96903 13.8975 8.46325 13.7009 7.9916C13.5044 7.51995 13.2167 7.09168 12.8545 6.7313C12.4923 6.37092 12.0625 6.0855 11.5899 5.89138C11.1172 5.69726 10.6109 5.59824 10.1 5.6Z" fill="white"/>
<path d="M4.4 6.19995H2.6C2.26863 6.19995 2 6.46858 2 6.79995V13.4C2 13.7313 2.26863 14 2.6 14H4.4C4.73137 14 5 13.7313 5 13.4V6.79995C5 6.46858 4.73137 6.19995 4.4 6.19995Z" fill="white"/>
<path d="M3.5 5C4.32843 5 5 4.32843 5 3.5C5 2.67157 4.32843 2 3.5 2C2.67157 2 2 2.67157 2 3.5C2 4.32843 2.67157 5 3.5 5Z" fill="white"/>
</g>
<defs>
<clipPath id="clip0_1_399">
<rect width="16" height="16" fill="white"/>
</clipPath>
</defs>
</svg>
