<svg width="80" height="80" viewBox="0 0 80 80" fill="none" xmlns="http://www.w3.org/2000/svg">
<path d="M16.9233 31.5236C16.9233 28.9302 17.3766 26.4803 18.27 24.1936C19.1235 21.9726 20.3916 19.9341 22.0066 18.1868C23.6184 16.4625 25.4629 14.9715 27.4866 13.7568C29.563 12.5007 31.811 11.553 34.16 10.9435C36.5373 10.3193 38.9853 10.0044 41.4433 10.0068C45.24 10.0068 48.7733 10.8102 52.05 12.4102C55.2839 13.981 58.0364 16.3917 60.02 19.3902C62.0666 22.4402 63.0833 25.8902 63.0833 29.7368C63.0833 32.0435 62.8566 34.3003 62.3933 36.5069C61.9384 38.7124 61.2152 40.8538 60.24 42.8835C59.3104 44.8484 58.095 46.6647 56.6333 48.2735C55.1642 49.8567 53.3851 51.1208 51.4066 51.9869C49.2587 52.9283 46.935 53.402 44.59 53.3769C42.96 53.3769 41.3333 52.9935 39.7266 52.2235C38.12 51.4568 36.9666 50.4036 36.2733 49.0536C36.03 49.9903 35.6966 51.3435 35.2533 53.1135C34.8266 54.8802 34.54 56.0202 34.4133 56.5368C34.28 57.0502 34.0333 57.9068 33.6733 59.0935C33.4292 59.9713 33.116 60.8284 32.7366 61.6568L31.59 63.9035C31.0941 64.8676 30.5397 65.8004 29.93 66.6969C29.3266 67.5702 28.58 68.6135 27.69 69.8135L27.1933 69.9902L26.8633 69.6303C26.5066 65.8536 26.3233 63.5936 26.3233 62.8469C26.3233 60.6369 26.5866 58.1568 27.1066 55.4035C27.6166 52.6535 28.4233 49.1968 29.5066 45.0402C30.59 40.8868 31.21 38.4435 31.3766 37.7202C30.6133 36.1635 30.2266 34.1302 30.2266 31.6302C30.2266 29.6335 30.85 27.7635 32.1 26.0035C33.3533 24.2502 34.9366 23.3736 36.8566 23.3736C38.3266 23.3736 39.4666 23.8602 40.2833 24.8368C41.1033 25.8102 41.5033 27.0369 41.5033 28.5336C41.5033 30.1203 40.9766 32.4168 39.9166 35.4202C38.8566 38.4268 38.33 40.6702 38.33 42.1602C38.33 43.6702 38.87 44.9335 39.95 45.9235C41.0158 46.914 42.4253 47.4508 43.88 47.4202C45.2 47.4202 46.4233 47.1202 47.56 46.5168C48.6789 45.9312 49.6474 45.0951 50.39 44.0736C52.0074 41.8546 53.1604 39.3319 53.78 36.6568C54.1 35.2502 54.3466 33.9135 54.5 32.6568C54.6633 31.3935 54.7333 30.2002 54.7333 29.0668C54.7333 24.9102 53.4133 21.6703 50.79 19.3503C48.1533 17.0303 44.72 15.8768 40.4966 15.8768C35.6933 15.8768 31.6766 17.4303 28.46 20.5469C25.24 23.6536 23.62 27.6036 23.62 32.3936C23.62 33.4503 23.78 34.4702 24.0833 35.4568C24.38 36.4402 24.7033 37.2236 25.0533 37.8036C25.4 38.3736 25.7266 38.9303 26.0233 39.4436C26.3233 39.9569 26.48 40.3235 26.48 40.5435C26.48 41.2168 26.3033 42.0935 25.9466 43.1768C25.5766 44.2602 25.14 44.8003 24.6133 44.8003C24.5633 44.8003 24.3566 44.7635 23.9966 44.6868C22.7499 44.3146 21.6239 43.6188 20.7333 42.6702C19.7881 41.687 19.0422 40.5302 18.5366 39.2635C18.0326 38.0014 17.64 36.6975 17.3633 35.3668C17.0644 34.1078 16.9167 32.8177 16.9233 31.5236Z" fill="black"/>
</svg>
