<svg width="16" height="16" viewBox="0 0 16 16" fill="none" xmlns="http://www.w3.org/2000/svg">
<g clip-path="url(#clip0_1_408)">
<path d="M5.38669 13.3333C6.37249 13.3663 7.3549 13.2013 8.27585 12.8481C9.19681 12.495 10.0376 11.9608 10.7486 11.2772C11.4596 10.5935 12.0264 9.77428 12.4153 8.86787C12.8043 7.96146 13.0077 6.98628 13.0134 5.99995C13.4651 5.44089 13.8006 4.79717 14 4.10661C14.0149 4.05206 14.0137 3.99436 13.9966 3.94046C13.9794 3.88657 13.9471 3.83879 13.9034 3.80286C13.8597 3.76693 13.8066 3.7444 13.7504 3.73797C13.6942 3.73154 13.6374 3.74148 13.5867 3.76661C13.3503 3.88038 13.0843 3.91713 12.8259 3.87169C12.5676 3.82624 12.33 3.70088 12.1467 3.51328C11.9127 3.257 11.6296 3.0503 11.3142 2.90543C10.9988 2.76056 10.6576 2.68047 10.3107 2.6699C9.96376 2.65934 9.61827 2.7185 9.29466 2.84391C8.97104 2.96931 8.67589 3.15839 8.42669 3.39995C8.08549 3.73039 7.83558 4.14348 7.70123 4.59906C7.56689 5.05465 7.5527 5.53725 7.66003 5.99995C5.42669 6.13328 3.89336 5.07328 2.66669 3.61995C2.62984 3.57822 2.58164 3.54812 2.52796 3.53333C2.47429 3.51854 2.41747 3.5197 2.36444 3.53667C2.31142 3.55364 2.26448 3.58568 2.22936 3.62888C2.19425 3.67208 2.17247 3.72457 2.16669 3.77995C1.93301 5.07623 2.10158 6.41298 2.64977 7.61066C3.19797 8.80834 4.09952 9.8096 5.23336 10.4799C4.47312 11.3518 3.4055 11.8964 2.25336 11.9999C2.19164 12.0102 2.13466 12.0395 2.0904 12.0837C2.04613 12.1279 2.01681 12.1849 2.00652 12.2466C1.99624 12.3083 2.00551 12.3717 2.03303 12.4279C2.06055 12.4841 2.10496 12.5302 2.16003 12.5599C3.16237 13.0609 4.26618 13.3254 5.38669 13.3333Z" fill="white"/>
</g>
<defs>
<clipPath id="clip0_1_408">
<rect width="16" height="16" fill="white"/>
</clipPath>
</defs>
</svg>
