<svg width="16" height="16" viewBox="0 0 16 16" fill="none" xmlns="http://www.w3.org/2000/svg">
<g clip-path="url(#clip0_48_793)">
<mask id="mask0_48_793" style="mask-type:luminance" maskUnits="userSpaceOnUse" x="0" y="0" width="16" height="16">
<path d="M16 0H0V16H16V0Z" fill="white"/>
</mask>
<g mask="url(#mask0_48_793)">
<path d="M5.38669 13.3335C6.37249 13.3665 7.3549 13.2015 8.27585 12.8483C9.19681 12.4952 10.0376 11.961 10.7486 11.2774C11.4596 10.5937 12.0264 9.77453 12.4153 8.86812C12.8043 7.96171 13.0077 6.98653 13.0134 6.0002C13.4651 5.44114 13.8006 4.79742 14 4.10686C14.0149 4.05231 14.0137 3.99461 13.9966 3.94071C13.9794 3.88682 13.9471 3.83904 13.9034 3.80311C13.8597 3.76718 13.8066 3.74465 13.7504 3.73822C13.6942 3.73179 13.6374 3.74173 13.5867 3.76686C13.3503 3.88063 13.0843 3.91738 12.8259 3.87194C12.5676 3.82649 12.33 3.70113 12.1467 3.51353C11.9127 3.25725 11.6296 3.05055 11.3142 2.90568C10.9988 2.76081 10.6576 2.68072 10.3107 2.67015C9.96376 2.65959 9.61827 2.71875 9.29466 2.84416C8.97104 2.96956 8.67589 3.15864 8.42669 3.4002C8.08549 3.73064 7.83558 4.14373 7.70123 4.59931C7.56689 5.0549 7.5527 5.5375 7.66003 6.0002C5.42669 6.13353 3.89336 5.07353 2.66669 3.6202C2.62984 3.57847 2.58164 3.54837 2.52796 3.53358C2.47429 3.51879 2.41747 3.51995 2.36444 3.53692C2.31142 3.55389 2.26448 3.58593 2.22936 3.62913C2.19425 3.67233 2.17247 3.72482 2.16669 3.7802C1.93301 5.07648 2.10158 6.41323 2.64977 7.61091C3.19797 8.80859 4.09952 9.80985 5.23336 10.4801C4.47312 11.352 3.4055 11.8966 2.25336 12.0001C2.19164 12.0104 2.13466 12.0397 2.0904 12.0839C2.04613 12.1281 2.01681 12.1851 2.00652 12.2468C1.99624 12.3085 2.00551 12.3719 2.03303 12.4281C2.06055 12.4843 2.10496 12.5304 2.16003 12.5601C3.16237 13.0611 4.26618 13.3256 5.38669 13.3335Z" fill="black"/>
</g>
</g>
<defs>
<clipPath id="clip0_48_793">
<rect width="16" height="16" fill="white"/>
</clipPath>
</defs>
</svg>
