<svg width="80" height="80" viewBox="0 0 80 80" fill="none" xmlns="http://www.w3.org/2000/svg">
<path d="M65.4433 26.6565C65.4866 27.2398 65.4866 27.8198 65.4866 28.3998C65.4866 46.1498 51.9766 66.6032 27.2866 66.6032C19.68 66.6032 12.6133 64.3998 6.66663 60.5732C7.74663 60.6965 8.78663 60.7398 9.90996 60.7398C15.9533 60.7544 21.8254 58.7336 26.58 55.0032C23.778 54.9524 21.0619 54.028 18.8108 52.3589C16.5596 50.6899 14.8859 48.3595 14.0233 45.6932C14.8533 45.8165 15.6866 45.8998 16.56 45.8998C17.7633 45.8998 18.9733 45.7332 20.0966 45.4432C17.0558 44.8292 14.3215 43.181 12.3587 40.7788C10.3958 38.3766 9.3256 35.3686 9.32996 32.2665V32.0998C11.12 33.0965 13.1966 33.7198 15.3966 33.8032C13.5536 32.5784 12.0424 30.9166 10.9978 28.9658C9.95316 27.015 9.40767 24.836 9.40996 22.6232C9.40996 20.1298 10.0733 17.8432 11.2366 15.8498C14.6104 19.9999 18.8183 23.395 23.5877 25.8153C28.3572 28.2357 33.5818 29.6272 38.9233 29.8998C38.7166 28.8998 38.59 27.8632 38.59 26.8232C38.5891 25.0597 38.9358 23.3133 39.6102 21.684C40.2847 20.0546 41.2736 18.5741 42.5206 17.3271C43.7675 16.0802 45.248 15.0912 46.8774 14.4167C48.5068 13.7423 50.2532 13.3956 52.0166 13.3965C55.8833 13.3965 59.3733 15.0165 61.8266 17.6365C64.8325 17.0552 67.7151 15.9579 70.3466 14.3932C69.3447 17.4959 67.2458 20.1268 64.4433 21.7932C67.1092 21.4891 69.7147 20.788 72.1733 19.7132C70.3371 22.3901 68.0617 24.7376 65.4433 26.6565Z" fill="white"/>
</svg>
